<svg xmlns="http://www.w3.org/2000/svg" xmlns:xlink="http://www.w3.org/1999/xlink" width="30" height="30" viewBox="0 0 30 30">
  <defs>
    <path id="white-100-a" d="M23.0464625,29.9999819 L6.93769799,29.9999819 C3.10611319,29.9999819 0,26.8938706 0,23.0622881 L0,6.93769381 C0,3.10611132 3.10611319,0 6.93769799,0 L23.062302,0 C26.8938868,0 30,3.10611132 30,6.93769381 L30,23.0622881 C30.0000048,24.9050265 29.266897,26.6720608 27.9623984,27.973587 C26.6578998,29.2751133 24.8891973,30.0041891 23.0464625,29.9999819 Z M7.48068182,2.01476434 C4.45378483,2.01476434 2,4.46715577 2,7.4923339 L2,22.5224304 C2,25.5476086 4.45378483,28 7.48068182,28 L22.5193182,28 C25.5462152,28 28,25.5476086 28,22.5224304 L28,7.47756956 C28,4.45239143 25.5462152,2 22.5193182,2 L7.49545455,2 L7.48068182,2.01476434 Z M6.11336032,6.96545455 C7.4455159,6.90130476 8.77827867,7.07864747 10.048583,7.48909091 C11.5885127,8.10143248 13.0336904,8.93352022 14.340081,9.96 L14.340081,23.8036364 C13.1275234,22.9170418 11.8043273,22.1962563 10.4048583,21.66 C9.02175923,21.2002355 7.56819408,20.9951632 6.11336032,21.0545455 L6.11336032,6.96545455 Z M20.2712551,7.52181818 C21.535811,7.07911286 22.8685372,6.86852416 24.2064777,6.9 L24.2064777,20.9890909 C22.751644,20.9297086 21.2980788,21.134781 19.9149798,21.5945455 C18.4908462,22.1419537 17.1455825,22.8794028 15.9149798,23.7872727 L15.9149798,9.96 C17.2449086,8.94203915 18.7117838,8.1210377 20.2712551,7.52181818 Z"/>
  </defs>
  <g fill="none" fill-rule="evenodd">
    <mask id="white-100-b" fill="#fff">
      <use xlink:href="#white-100-a"/>
    </mask>
    <use fill="#FFF" fill-rule="nonzero" xlink:href="#white-100-a"/>
    <g fill="#FFF" mask="url(#white-100-b)">
      <rect width="30" height="30"/>
    </g>
  </g>
</svg>
